<svg version="1.1" xmlns="http://www.w3.org/2000/svg" xmlns:xlink="http://www.w3.org/1999/xlink" width="252.89692" height="64.47499" viewBox="0,0,252.89692,64.47499"><g transform="translate(-193.55154,-147.76252)"><g data-paper-data="{&quot;isPaintingLayer&quot;:true}" fill-rule="nonzero" stroke-linecap="butt" stroke-linejoin="miter" stroke-miterlimit="10" stroke-dasharray="" stroke-dashoffset="0" style="mix-blend-mode: normal"><path d="M194.55154,211.23751v-62.47499h250.89692v62.47499z" fill="#9aff80" stroke="#000000" stroke-width="2"/><text transform="translate(254.95371,186.48246) scale(0.53108,0.53108)" font-size="40" xml:space="preserve" fill="#000000" fill-rule="nonzero" stroke="#000000" stroke-width="2" stroke-linecap="butt" stroke-linejoin="miter" stroke-miterlimit="10" stroke-dasharray="" stroke-dashoffset="0" font-family="&quot;Avenir Next&quot;, Sans Serif" font-weight="normal" text-anchor="start" style="mix-blend-mode: normal"><tspan x="0" dy="0">Edit an existing set</tspan></text><path d="M204.29054,154.94764h21.4269h0.72539l0.55799,0.50219l10.71345,10.71345l0.50219,0.55799v0.72539v13.9498l1.61818,-1.61818c1.02988,-1.02988 2.37229,-1.56238 3.73855,-1.56238c1.36626,0 2.70867,0.5325 3.73855,1.56238c2.05975,2.05975 2.05975,5.41734 0,7.4771l-17.63255,17.68836l-0.39059,0.39059l-0.55799,0.1116l-6.24951,1.22758l-2.62256,0.55799l0.55799,-2.62256l0.61379,-3.23635h-16.73977h-1.78557v-1.78557v-42.8538v-1.78557zM206.07612,197.80144h15.67958l0.39059,-0.39059l12.49902,-12.44323v-15.73538h-8.92788h-1.78557v-1.78557v-8.92788h-17.85575zM227.50302,165.66109h4.57554l-4.57554,-4.57553zM242.34561,182.28926l-0.1116,0.0558l-17.18616,17.24196l-0.61379,3.06896l3.06896,-0.61379l17.29776,-17.29776c0.79716,-0.79716 0.79716,-1.658 0,-2.45517c-0.39858,-0.39858 -0.80827,-0.61379 -1.22758,-0.61379c-0.41932,0 -0.829,0.21521 -1.22758,0.61379z" fill="#000000" stroke="none" stroke-width="1"/></g></g></svg>